<svg xmlns="http://www.w3.org/2000/svg" version="1.1" xmlns:xlink="http://www.w3.org/1999/xlink" xmlns:svgjs="http://svgjs.dev/svgjs" width="1500" height="1500" viewBox="0 0 1500 1500"><g transform="matrix(1,0,0,1,-0.21332335329316265,-0.21332335329350371)"><svg viewBox="0 0 334 334" data-background-color="#a8deea" preserveAspectRatio="xMidYMid meet" height="1500" width="1500" xmlns="http://www.w3.org/2000/svg" xmlns:xlink="http://www.w3.org/1999/xlink"><g id="tight-bounds" transform="matrix(1,0,0,1,0.04749999999998522,0.04750000000001364)"><svg viewBox="0 0 333.90454557049503 333.90454557049503" height="333.90454557049503" width="333.90454557049503"><g><svg></svg></g><g><svg viewBox="0 0 333.90454557049503 333.90454557049503" height="333.90454557049503" width="333.90454557049503"><g><path d="M0 166.952c0-92.205 74.747-166.952 166.952-166.952 92.205 0 166.952 74.747 166.953 166.952 0 92.205-74.747 166.952-166.953 166.953-92.205 0-166.952-74.747-166.952-166.953zM166.952 324.649c87.094 0 157.697-70.603 157.697-157.697 0-87.094-70.603-157.697-157.697-157.696-87.094 0-157.697 70.603-157.696 157.696 0 87.094 70.603 157.697 157.696 157.697z" data-fill-palette-color="tertiary" fill="#261f20" stroke="transparent"></path><ellipse rx="160.27418187383762" ry="160.27418187383762" cx="166.95227278524752" cy="166.95227278524752" fill="#261f20" stroke="transparent" stroke-width="0" fill-opacity="1" data-fill-palette-color="tertiary"></ellipse></g><g transform="matrix(1,0,0,1,135.42144587756297,71.17305217166896)"><svg viewBox="0 0 63.0616538153691 191.55844122715712" height="191.55844122715712" width="63.0616538153691"><g><svg viewBox="0 0 63.0616538153691 191.55844122715712" height="191.55844122715712" width="63.0616538153691"><g><svg viewBox="0 0 117.7014400455693 357.53430208685654" height="191.55844122715712" width="63.0616538153691"><g transform="matrix(1,0,0,1,0,165.97586085969942)"><svg viewBox="0 0 117.7014400455693 191.55844122715712" height="191.55844122715712" width="117.7014400455693"><g id="textblocktransform"><svg viewBox="0 0 117.7014400455693 191.55844122715712" height="191.55844122715712" width="117.7014400455693" id="textblock"><g><svg viewBox="0 0 117.7014400455693 191.55844122715712" height="191.55844122715712" width="117.7014400455693"><g transform="matrix(1,0,0,1,0,0)"><svg width="117.7014400455693" viewBox="2.55 -36.2 22.55 36.70000000000001" height="191.55844122715712" data-palette-color="#a8deea"><path d="M25.1-9.55L25.1-9.55Q25.1-6.35 23.55-4.13 22-1.9 19.13-0.7 16.25 0.5 12.35 0.5L12.35 0.5Q10.35 0.5 8.53 0.3 6.7 0.1 5.2-0.28 3.7-0.65 2.55-1.2L2.55-1.2 2.55-5.5Q4.35-4.7 7.03-4.05 9.7-3.4 12.55-3.4L12.55-3.4Q15.2-3.4 17-4.1 18.8-4.8 19.7-6.1 20.6-7.4 20.6-9.15L20.6-9.15Q20.6-10.9 19.85-12.1 19.1-13.3 17.28-14.33 15.45-15.35 12.2-16.5L12.2-16.5Q9.15-17.6 7.1-19 5.05-20.4 4.03-22.38 3-24.35 3-27.1L3-27.1Q3-29.95 4.45-31.98 5.9-34 8.47-35.1 11.05-36.2 14.4-36.2L14.4-36.2Q17.35-36.2 19.8-35.65 22.25-35.1 24.25-34.2L24.25-34.2 22.85-30.35Q21-31.15 18.82-31.7 16.65-32.25 14.3-32.25L14.3-32.25Q12.05-32.25 10.55-31.6 9.05-30.95 8.3-29.78 7.55-28.6 7.55-27.05L7.55-27.05Q7.55-25.25 8.3-24.05 9.05-22.85 10.75-21.9 12.45-20.95 15.35-19.85L15.35-19.85Q18.5-18.7 20.68-17.38 22.85-16.05 23.98-14.2 25.1-12.35 25.1-9.55Z" opacity="1" transform="matrix(1,0,0,1,0,0)" fill="#a8deea" class="wordmark-text-0" data-fill-palette-color="quaternary" id="text-0"></path></svg></g></svg></g></svg></g></svg></g><g transform="matrix(1,0,0,1,22.480975048703733,0)"><svg viewBox="0 0 72.73948994816183 120.75351028855708" height="120.75351028855708" width="72.73948994816183"><g><svg xmlns="http://www.w3.org/2000/svg" xmlns:xlink="http://www.w3.org/1999/xlink" version="1.1" x="0" y="0" viewBox="22.891000000000002 4.901999999999999 54.21599999999998 90.00299999999999" enable-background="new 0 0 100 100" xml:space="preserve" height="120.75351028855708" width="72.73948994816183" class="icon-icon-0" data-fill-palette-color="quaternary" id="icon-0"><g fill="#a8deea" data-fill-palette-color="quaternary"><path fill="#a8deea" d="M30.291 64.484c-0.32 1.751-0.663 3.503-1.035 5.254-0.369 1.753-0.716 3.512-1.033 5.282-0.317 1.768-0.481 3.593-0.481 5.481 0 2.057 0.324 3.956 0.963 5.709 0.638 1.751 1.564 3.275 2.777 4.575 1.213 1.297 2.707 2.307 4.475 3.032 1.768 0.723 3.763 1.085 5.985 1.085h2.781V92.78c0-0.367-0.145-0.657-0.43-0.857-0.289-0.202-0.568-0.305-0.838-0.305h-1.664c-1.45 0-2.771-0.252-3.968-0.758-1.196-0.506-2.22-1.229-3.08-2.172-0.859-0.946-1.536-2.087-2.023-3.437-0.491-1.349-0.734-2.845-0.734-4.499 0-1.883 0.15-3.74 0.455-5.557 0.302-1.822 0.639-3.622 1.011-5.407 0.369-1.784 0.705-3.562 1.01-5.33 0.305-1.772 0.456-3.548 0.456-5.333 0-1.245-0.212-2.381-0.632-3.409-0.421-1.028-0.979-1.937-1.668-2.729-0.689-0.792-1.482-1.451-2.374-1.971-0.892-0.522-1.825-0.885-2.807-1.085 0.981-0.239 1.915-0.617 2.807-1.139 0.889-0.524 1.685-1.169 2.374-1.946 0.689-0.774 1.247-1.682 1.668-2.728 0.42-1.044 0.632-2.192 0.632-3.438 0-1.785-0.151-3.561-0.456-5.33s-0.641-3.541-1.01-5.309c-0.372-1.768-0.709-3.563-1.011-5.38-0.305-1.82-0.455-3.687-0.455-5.609 0-1.652 0.243-3.149 0.734-4.499 0.487-1.344 1.164-2.491 2.023-3.434 0.86-0.945 1.884-1.669 3.08-2.174 1.196-0.506 2.518-0.757 3.968-0.757h1.664c0.27 0 0.549-0.104 0.838-0.304 0.285-0.202 0.43-0.49 0.43-0.86V4.902h-2.781c-2.223 0-4.218 0.363-5.985 1.086-1.768 0.728-3.262 1.735-4.475 3.036-1.213 1.294-2.14 2.821-2.777 4.572-0.639 1.751-0.963 3.656-0.963 5.709 0 1.887 0.164 3.713 0.481 5.481 0.317 1.773 0.664 3.533 1.033 5.285 0.372 1.751 0.715 3.502 1.035 5.251 0.324 1.754 0.481 3.557 0.481 5.407 0 1.115-0.186 2.135-0.555 3.059-0.372 0.926-0.901 1.735-1.591 2.426s-1.523 1.223-2.499 1.592c-0.981 0.372-2.056 0.555-3.236 0.555v3.08c1.181 0 2.255 0.186 3.236 0.56 0.976 0.371 1.81 0.9 2.499 1.592 0.689 0.69 1.219 1.497 1.591 2.422 0.369 0.929 0.555 1.949 0.555 3.06C30.772 60.926 30.615 62.729 30.291 64.484zM69.832 56.014c0.368-0.924 0.901-1.73 1.594-2.42 0.687-0.692 1.514-1.223 2.477-1.592 0.959-0.374 2.027-0.561 3.204-0.561v-3.079c-1.177 0-2.245-0.185-3.204-0.555-0.963-0.37-1.79-0.901-2.477-1.592-0.692-0.69-1.226-1.5-1.594-2.426-0.369-0.925-0.556-1.946-0.556-3.061 0-1.849 0.161-3.651 0.479-5.407 0.32-1.748 0.664-3.5 1.036-5.252 0.368-1.751 0.715-3.511 1.032-5.283 0.321-1.769 0.484-3.594 0.484-5.482 0-2.053-0.32-3.956-0.962-5.709-0.635-1.751-1.563-3.276-2.777-4.572-1.213-1.299-2.704-2.307-4.472-3.035-1.771-0.723-3.763-1.086-5.989-1.086h-2.78v2.123c0 0.369 0.138 0.657 0.407 0.859 0.27 0.202 0.555 0.304 0.856 0.304h1.668c1.449 0 2.771 0.251 3.968 0.757 1.193 0.506 2.22 1.23 3.079 2.176 0.863 0.941 1.536 2.089 2.024 3.434 0.487 1.349 0.734 2.845 0.734 4.499 0 1.922-0.151 3.788-0.459 5.609-0.302 1.818-0.635 3.611-1.01 5.38-0.369 1.769-0.706 3.54-1.008 5.309-0.302 1.768-0.459 3.544-0.459 5.33 0 1.245 0.206 2.393 0.613 3.438 0.4 1.044 0.949 1.954 1.639 2.727 0.689 0.777 1.482 1.423 2.374 1.946 0.892 0.521 1.831 0.899 2.807 1.139-0.976 0.201-1.915 0.562-2.807 1.085-0.892 0.521-1.685 1.18-2.374 1.97-0.689 0.794-1.234 1.702-1.639 2.729-0.411 1.029-0.613 2.167-0.613 3.411 0 1.785 0.157 3.561 0.459 5.334 0.302 1.767 0.639 3.544 1.008 5.329 0.375 1.784 0.708 3.586 1.01 5.408 0.308 1.817 0.459 3.672 0.459 5.555 0 1.654-0.247 3.15-0.734 4.499-0.488 1.349-1.165 2.491-2.024 3.438-0.859 0.943-1.886 1.665-3.079 2.172-1.196 0.504-2.519 0.757-3.968 0.757h-1.668c-0.302 0-0.591 0.104-0.856 0.304-0.27 0.201-0.407 0.489-0.407 0.859v2.123h2.78c2.224 0 4.219-0.362 5.989-1.085 1.768-0.725 3.259-1.737 4.472-3.033 1.212-1.298 2.139-2.823 2.777-4.576 0.642-1.751 0.962-3.652 0.962-5.708 0-1.888-0.163-3.715-0.484-5.482-0.317-1.768-0.664-3.528-1.032-5.28-0.369-1.751-0.716-3.504-1.036-5.256-0.317-1.753-0.479-3.557-0.479-5.407C69.276 57.964 69.463 56.944 69.832 56.014z" data-fill-palette-color="quaternary"></path></g></svg></g></svg></g><g></g></svg></g></svg></g></svg></g></svg></g><defs></defs></svg><rect width="333.90454557049503" height="333.90454557049503" fill="none" stroke="none" visibility="hidden"></rect></g></svg></g></svg>